<svg version="1.2" xmlns="http://www.w3.org/2000/svg" viewBox="0 0 304 270" width="200" height="178">
	<title>image-rules-svg</title>
	<defs>
		<linearGradient id="g1" x1="5658.1" y1="0" x2="5658.1" y2="10976.8" gradientUnits="userSpaceOnUse">
			<stop offset="0" stop-color="#ffffff" stop-opacity=".1"/>
			<stop offset="100" stop-color="#ffffff" stop-opacity="0"/>
		</linearGradient>
		<linearGradient id="g2" x1="5960.4" y1="0" x2="5960.4" y2="10976.8" gradientUnits="userSpaceOnUse">
			<stop offset="0" stop-color="#ffffff" stop-opacity=".1"/>
			<stop offset="100" stop-color="#ffffff" stop-opacity="0"/>
		</linearGradient>
		<linearGradient id="g3" x1="5862.4" y1="160" x2="5862.4" y2="11136.8" gradientUnits="userSpaceOnUse">
			<stop offset="0" stop-color="#ffffff" stop-opacity=".1"/>
			<stop offset="100" stop-color="#ffffff" stop-opacity="0"/>
		</linearGradient>
	</defs>
	<style>
		tspan { white-space:pre } 
		.s0 { fill: #b1b4c5 } 
		.s1 { fill: url(#g1) } 
		.s2 { fill: #e1e4ed } 
		.s3 { fill: #8a90ac } 
		.s4 { fill: url(#g2) } 
		.s5 { fill: url(#g3) } 
	</style>
	<g id="Layer">
		<ellipse id="Layer" class="s0" cx="53.2" cy="54.8" rx="53.2" ry="54.8"/>
		<ellipse id="Layer" class="s1" cx="53.2" cy="52.4" rx="53.2" ry="52.4"/>
		<g id="Layer">
			<ellipse id="Layer" class="s2" cx="53.2" cy="53.5" rx="40.8" ry="41"/>
			<path id="Layer" class="s3" d="m70.3 44.6c-0.2 1.8-1.2 6.5-2 10.2l-0.1 0.1c-0.4 1.9-0.9 4.2-0.9 4.5 0 0 0.4 6.6-1.4 14.3l-0.6 2.7-13.8 1-0.8-0.7 0.1-0.1q0.1-0.1 0.1-0.1 0-0.1 0-0.1 0.1-0.1 0.1-0.2 0 0 0-0.1-0.1-0.6-1.1-1.3c0-0.1-5.3-3-8.6-6.5q-0.4-0.5-0.9-1.1l-0.1-0.1c-1.1-1.3-2.6-2.9-2.8-4.5-0.4-1.7-2.4-5.5-2.4-5.5l-0.1-0.1c0-0.3-0.3-1.5 0.4-2.5q0.6-0.9 2-1.1h0.1 0.1c2.6 0.8 5.4 6 6 7.1 0.2 0.1 0.7 0.4 1 0.3q0 0 0.1 0 0 0 0 0 0 0 0 0 0 0 0.1 0 0.1-0.1 0.2-0.4c0 0 0.4-2.3-0.6-5.9-0.5-1.6-0.9-3-1.4-4.4v-0.1c-0.9-2.4-1.7-4.9-2.5-8.4-0.3-2.4 1-3 1.6-3.1q0.1 0 0.1 0 0 0 0.1 0 0 0 0 0 0.1 0 0.1 0c1.1-0.1 2.3 0.6 2.7 1.5 0.2 0.2 0.4 0.8 1 2.7 2.1 7 3.6 10.5 4.5 10.6 0.5-0.6-0.2-6.3-0.6-9-0.7-5.8-0.9-8.3-0.3-9 0.4-0.8 1.1-1.3 2-1.2 1.1 0 2.2 0.8 2.4 1.6 0.1 0.4 0.3 1.8 0.6 4.2 0.5 3.4 1.5 11.3 2.3 12.7 0.6-1 1.2-6.9 1.4-9.5 0.4-4.8 0.6-5.8 1.1-6.1 1-0.6 1.9-0.8 2.6-0.4q1 0.5 1.3 2.2c0 0.1 0 0.5-0.1 2.5v0.1c-0.2 2.9-0.6 10.5-0.2 12.6 0.3-0.8 0.8-2.3 1.2-3.5 0.8-2.5 1.7-5.7 2.9-7.3 0.2-0.3 0.5-0.5 1-0.5q0.1 0 0.2 0 0.1 0 0.2 0 0.1 0 0.2 0.1 0.1 0 0.3 0c0.8 0.4 1.3 1.1 1.2 1.8z"/>
		</g>
		<g id="Layer">
			<ellipse id="Layer" class="s0" cx="249.7" cy="54.8" rx="53.7" ry="54.8"/>
			<ellipse id="Layer" class="s4" cx="249.7" cy="52.4" rx="53.7" ry="52.4"/>
			<g id="Layer">
				<ellipse id="Layer" class="s2" cx="249.7" cy="53.5" rx="41.2" ry="41"/>
				<path id="Layer" class="s3" d="m238.8 53.5q-0.1 0.2-0.1 0.4 0.1 0.2 0.2 0.4 0.1 0.1 0.3 0.3 0.1 0.1 0.3 0.1 0.2 0.1 0.5 0 0.2 0 0.3-0.1 0.2-0.1 0.3-0.3l13.9-19.3c1.5-1.9 4.2 0.1 2.8 2l-9.4 14.5c-0.3 0.5-0.3 1 0.2 1.4q0.1 0.1 0.3 0.2 0.2 0.1 0.4 0.1 0.1 0 0.3-0.1 0.2-0.1 0.4-0.2l13.4-12c2.1-1.8 4.7 1.3 2.6 3-5.6 5.2-4.3 4.3-13 11.8-0.4 0.4-0.5 1.1-0.1 1.5q0.2 0.2 0.3 0.3 0.2 0.1 0.4 0.1 0.3 0 0.5-0.1 0.2 0 0.3-0.2l2.5-2.1c2.1-0.6 3.6 2 2 3.5l-3 3q-0.1 0.2-0.2 0.4-0.1 0.2-0.1 0.4 0 0.2 0.1 0.4 0.1 0.2 0.2 0.3 0.2 0.2 0.3 0.3 0.2 0 0.5 0 0.2 0 0.4-0.1 0.2 0 0.3-0.2c0.8-0.8 2.2-0.8 3 0 1.7 1.7-0.4 3.2-0.5 3.4-8.5 8.5-17.4 9.7-19.4 9.9l-11.2-11.1c0.4-2.3 2.2-11.8 6.5-16.1 2.8-2.8 6.2-2.7 8.1-2.4l-4.5 6.2q-0.1 0.2-0.1 0.4z"/>
			</g>
		</g>
		<g id="Layer">
			<ellipse id="Layer" class="s0" cx="151.7" cy="214.8" rx="53.7" ry="54.8"/>
			<ellipse id="Layer" class="s5" cx="151.7" cy="212.4" rx="53.7" ry="52.4"/>
			<g id="Layer">
				<ellipse id="Layer" class="s2" cx="151.7" cy="213.5" rx="41.2" ry="41"/>
				<path id="Layer" class="s3" d="m168.2 226.9l-0.4 3.4-18.4 3.1c0 0 1.2-1.6-1.8-3.3 0 0-8.4-5.6-12.4-10.2 0 0-2.2-2.5 0.8-7 0 0 2.3-2.8 3.4 0.6 0 0-1.2-5.9-1-7.8 0 0-0.3-6.1 7.1-5.3 0 0 4.3-4.5 7.7 0.4 0 0 4.4-3.6 7.2 1.4 0 0 6.8-0.6 7.3 5.4 0 0 3.3 10.8 0.5 19.3z"/>
			</g>
		</g>
		<text id="" style="transform: matrix(1,0,0,1,134,31)" >
		</text>
		<text id="" style="transform: matrix(1,0,0,1,40,147)" >
		</text>
		<text id="" style="transform: matrix(1,0,0,1,235,147)" >
		</text>
		<g id="Layer">
			<rect id="Layer" class="s0" x="127" y="49" width="50" height="4" rx="2"></rect>
			<path id="Layer" fill-rule="evenodd" class="s0" d="m135.6 40.6q0.4-0.1 0.7-0.1 0.4 0 0.7 0.1 0.4 0.1 0.6 0.4 0.3 0.3 0.4 0.6 0.2 0.3 0.2 0.7 0 0.4-0.2 0.7-0.1 0.4-0.3 0.6l-8.6 8.7q-0.3 0.3-0.6 0.4-0.4 0.2-0.7 0.2-0.4 0-0.7-0.1-0.4-0.2-0.6-0.4c-0.8-0.8-0.8-1.9-0.1-2.7l8.6-8.7q0.3-0.2 0.6-0.4z"/>
			<path id="Layer" fill-rule="evenodd" class="s0" d="m138 59q0.2 0.3 0.2 0.7 0 0.4-0.2 0.7-0.1 0.3-0.4 0.6-0.2 0.3-0.6 0.4-0.3 0.1-0.7 0.1-0.3 0-0.7-0.1-0.3-0.2-0.6-0.4l-8.6-8.7c-0.7-0.8-0.7-1.9 0.1-2.7q0.2-0.2 0.6-0.4 0.3-0.1 0.7-0.1 0.3 0 0.7 0.2 0.3 0.1 0.6 0.4l8.6 8.7q0.2 0.2 0.3 0.6z"/>
		</g>
		<g id="Layer">
			<path id="Layer" class="s0" d="m82.1 116.7c0.9-0.6 2.1-0.4 2.8 0.5l26.4 37.7c0.6 0.9 0.4 2.1-0.5 2.8-0.9 0.6-2.2 0.4-2.8-0.5l-26.4-37.7c-0.6-0.9-0.4-2.2 0.5-2.8z"/>
			<path id="Layer" fill-rule="evenodd" class="s0" d="m97.3 156.5q-0.3-0.1-0.5-0.4-0.2-0.3-0.3-0.7-0.1-0.4 0-0.7 0-0.4 0.2-0.7 0.2-0.3 0.5-0.5 0.3-0.2 0.7-0.3 0.3-0.1 0.7 0l12.1 2q0.3 0.1 0.7 0.3 0.3 0.2 0.5 0.4 0.2 0.3 0.3 0.7 0.1 0.4 0 0.7c-0.2 1-1.1 1.7-2.1 1.5l-12.1-2q-0.4-0.1-0.7-0.3z"/>
			<path id="Layer" fill-rule="evenodd" class="s0" d="m111 144q0.2-0.3 0.5-0.5 0.3-0.2 0.6-0.3 0.4-0.1 0.8 0 0.3 0.1 0.6 0.3 0.3 0.2 0.5 0.5 0.2 0.3 0.3 0.6 0.1 0.4 0 0.7l-2.2 12.1c-0.2 1-1.1 1.7-2.1 1.5q-0.4-0.1-0.7-0.3-0.3-0.2-0.5-0.5-0.2-0.3-0.3-0.6-0.1-0.4 0-0.8l2.2-12q0.1-0.4 0.3-0.7z"/>
		</g>
		<g id="Layer">
			<path id="Layer" class="s0" d="m197.1 159.3c-0.9-0.6-1.1-1.9-0.5-2.8l26.4-37.7c0.6-0.9 1.9-1.1 2.8-0.5 0.9 0.7 1.1 1.9 0.5 2.8l-26.4 37.7c-0.7 0.9-1.9 1.1-2.8 0.5z"/>
			<path id="Layer" fill-rule="evenodd" class="s0" d="m213 119.2l12.1-2c1-0.2 1.9 0.5 2.1 1.5q0.1 0.3 0 0.7-0.1 0.4-0.3 0.7-0.2 0.2-0.5 0.4-0.4 0.2-0.7 0.3l-12.1 2q-0.4 0.1-0.7 0-0.4-0.1-0.7-0.3-0.3-0.2-0.5-0.5-0.2-0.3-0.2-0.7-0.1-0.3 0-0.7 0.1-0.4 0.3-0.7 0.2-0.3 0.5-0.4 0.3-0.2 0.7-0.3z"/>
			<path id="Layer" fill-rule="evenodd" class="s0" d="m225.7 131.3l-2.2-12q-0.1-0.4 0-0.8 0.1-0.3 0.3-0.6 0.2-0.3 0.5-0.5 0.3-0.2 0.7-0.3c1-0.2 1.9 0.5 2.1 1.5l2.2 12.1q0.1 0.3 0 0.7-0.1 0.3-0.3 0.6-0.2 0.3-0.5 0.5-0.3 0.2-0.6 0.3-0.4 0.1-0.8 0-0.3-0.1-0.6-0.3-0.3-0.2-0.5-0.5-0.2-0.3-0.3-0.7z"/>
		</g>
	</g>
</svg>