<svg version="1.2" xmlns="http://www.w3.org/2000/svg" viewBox="0 0 340 330" width="340" height="330">
	<title>image-rules-bonus-svg</title>
	<defs>
		<linearGradient id="g1" x1="5537.5" y1="92" x2="5537.5" y2="10160.9" gradientUnits="userSpaceOnUse">
			<stop offset="0" stop-color="#ffffff" stop-opacity=".1"/>
			<stop offset="100" stop-color="#ffffff" stop-opacity="0"/>
		</linearGradient>
		<linearGradient id="g2" x1="5304.5" y1="92" x2="5304.5" y2="10160.9" gradientUnits="userSpaceOnUse">
			<stop offset="0" stop-color="#ffffff" stop-opacity=".1"/>
			<stop offset="100" stop-color="#ffffff" stop-opacity="0"/>
		</linearGradient>
		<linearGradient id="g3" x1="5421.5" y1="0" x2="5421.5" y2="10068.9" gradientUnits="userSpaceOnUse">
			<stop offset="0" stop-color="#ffffff" stop-opacity=".1"/>
			<stop offset="100" stop-color="#ffffff" stop-opacity="0"/>
		</linearGradient>
		<linearGradient id="g4" x1="5491.5" y1="225" x2="5491.5" y2="10293.9" gradientUnits="userSpaceOnUse">
			<stop offset="0" stop-color="#ffffff" stop-opacity=".1"/>
			<stop offset="100" stop-color="#ffffff" stop-opacity="0"/>
		</linearGradient>
		<linearGradient id="g5" x1="5350.5" y1="225" x2="5350.5" y2="10293.9" gradientUnits="userSpaceOnUse">
			<stop offset="0" stop-color="#ffffff" stop-opacity=".1"/>
			<stop offset="100" stop-color="#ffffff" stop-opacity="0"/>
		</linearGradient>
	</defs>
	<style>
		tspan { white-space:pre } 
		.s0 { fill: #b1b4c5 } 
		.s1 { fill: url(#g1) } 
		.s2 { fill: #e1e4ed } 
		.s3 { fill: #8a90ac } 
		.s4 { fill: url(#g2) } 
		.s5 { fill: url(#g3) } 
		.s6 { fill: url(#g4) } 
		.s7 { fill: url(#g5) } 
	</style>
	<g id="Layer">
		<g id="Layer">
			<ellipse id="Layer" class="s0" cx="284.5" cy="142.2" rx="51.5" ry="50.2"/>
			<ellipse id="Layer" class="s1" cx="284.5" cy="142.2" rx="51.5" ry="50.2"/>
			<g id="Layer">
				<ellipse id="Layer" class="s2" cx="284.5" cy="143.2" rx="39.5" ry="39.3"/>
				<path id="Layer" class="s3" d="m301.1 134.7c-0.2 1.7-1.2 6.2-2 9.8v0.1c-0.4 1.8-0.9 4-0.9 4.3 0 0 0.3 6.3-1.4 13.7l-0.6 2.6-13.4 0.9-0.7-0.7 0.1-0.1q0.1 0 0.1-0.1 0 0 0-0.1 0 0 0-0.1 0 0 0-0.1 0-0.6-1-1.3c0 0-5.1-2.8-8.3-6.2q-0.4-0.5-0.9-1.1h-0.1c-1.1-1.3-2.5-2.9-2.7-4.3-0.3-1.7-2.3-5.3-2.3-5.3l-0.1-0.1c0-0.3-0.3-1.5 0.3-2.4q0.7-0.9 2-1h0.1 0.1c2.5 0.7 5.2 5.7 5.8 6.7 0.2 0.2 0.7 0.4 1 0.4q0 0 0 0 0.1 0 0.1 0 0 0 0-0.1 0 0 0 0 0.2 0 0.2-0.4c0.1 0 0.4-2.2-0.6-5.6-0.4-1.5-0.8-2.8-1.3-4.2v-0.1c-0.8-2.3-1.6-4.7-2.4-8-0.2-2.4 1-2.9 1.6-3q0.1-0.1 0.3-0.1c1 0 2.2 0.6 2.6 1.5 0.1 0.2 0.3 0.8 0.9 2.6 2.1 6.7 3.6 10.1 4.4 10.2 0.5-0.6-0.2-6.1-0.6-8.7-0.7-5.6-0.9-7.9-0.3-8.6 0.4-0.8 1.1-1.2 2-1.2 1 0.1 2 0.8 2.3 1.6 0.1 0.4 0.3 1.7 0.6 4 0.4 3.3 1.4 10.9 2.1 12.2 0.7-0.9 1.2-6.7 1.4-9.1v-0.1c0.5-4.5 0.6-5.5 1.1-5.8 0.9-0.5 1.8-0.7 2.5-0.4q1 0.5 1.3 2.1c0 0.2 0 0.5-0.1 2.5-0.2 2.8-0.6 10.1-0.2 12.1 0.3-0.7 0.8-2.2 1.1-3.3 0.8-2.4 1.7-5.5 2.9-7 0.2-0.3 0.5-0.5 0.9-0.5q0.1 0 0.2 0 0.1 0 0.2 0 0.1 0 0.2 0.1 0.2 0 0.3 0c0.8 0.3 1.2 1 1.2 1.7z"/>
			</g>
		</g>
		<g id="Layer">
			<ellipse id="Layer" class="s0" cx="51.5" cy="144.5" rx="51.5" ry="52.5"/>
			<ellipse id="Layer" class="s4" cx="51.5" cy="142.2" rx="51.5" ry="50.2"/>
			<g id="Layer">
				<ellipse id="Layer" class="s2" cx="51.5" cy="143.2" rx="39.5" ry="39.3"/>
				<path id="Layer" class="s3" d="m69.1 146.5q0.1 0.2 0.1 0.3 0 0.2-0.1 0.3 0 0.2-0.2 0.3c-0.2 0.2-5.1 5.3-6.9 7-1.1 1-4.2 3.4-5 4.1-0.7 3 0 5.3 0 5.3q0.1 0.2 0 0.4 0 0.2-0.1 0.4-0.1 0.1-0.3 0.2-0.2 0.1-0.4 0.1h-15.6q-0.2 0-0.4-0.1-0.2 0-0.3-0.2-0.1-0.2-0.2-0.4 0-0.2 0-0.4l1.4-4.6q0.3-1.3 0.3-2.7 0-1.5-0.4-3c-0.6-1.7-1.3-4.6-1.3-8.4l-1.7-9.7q-0.1-0.5 0-0.9 0.1-0.4 0.3-0.8 0.3-0.4 0.6-0.6 0.3-0.3 0.8-0.4 0.1-0.1 0.2-0.1 0.1 0 0.2-0.1 0.1 0 0.3 0 0.1 0 0.2 0l-0.6-2.3q0-0.3 0-0.6 0-0.3 0-0.6 0.1-0.3 0.2-0.5 0.2-0.3 0.3-0.5c0.5-0.6 1.3-1 2.1-1q0.4 0 0.8 0.1 0.4 0.2 0.7 0.4 0.3 0.3 0.6 0.6 0.2 0.4 0.3 0.8l2.9 11.8c0.1 0.1 0.4 0.1 0.5-0.1l2.4-14.7c0.2-1.3 1.3-2.3 2.7-2.3 1.5 0 2.7 1.2 2.7 2.6l-0.1 1q0.4-0.2 0.9-0.2 0.5 0 1 0.2 0.5 0.2 0.9 0.6 0.3 0.3 0.5 0.8 0.2 0.5 0.3 1l-0.8 17.4 3.8-2.1c1.8-1.1 4.2-0.7 5.6 0.7l0.6 0.6q0.2 0.1 0.2 0.3z"/>
			</g>
		</g>
		<g id="Layer">
			<ellipse id="Layer" class="s0" cx="168.5" cy="52.5" rx="51.5" ry="52.5"/>
			<ellipse id="Layer" class="s5" cx="168.5" cy="50.2" rx="51.5" ry="50.2"/>
			<g id="Layer">
				<ellipse id="Layer" class="s2" cx="168.5" cy="51.2" rx="39.5" ry="39.3"/>
				<path id="Layer" class="s3" d="m158 51.2q0 0.2 0 0.4 0 0.2 0.1 0.4 0.1 0.1 0.3 0.3 0.2 0.1 0.4 0.1 0.2 0.1 0.4 0 0.2 0 0.3-0.1 0.2-0.1 0.3-0.3l13.3-18.5c1.4-1.8 4 0.2 2.7 1.9l-9 14c-0.3 0.4-0.3 0.9 0.2 1.3q0.1 0.1 0.3 0.2 0.1 0 0.3 0 0.2 0 0.4 0 0.1-0.1 0.3-0.2l12.9-11.6c2-1.6 4.5 1.3 2.5 2.9-5.4 5-4.2 4.1-12.5 11.4-0.4 0.3-0.5 1-0.1 1.4q0.1 0.2 0.3 0.3 0.2 0 0.4 0.1 0.2 0 0.4-0.1 0.2-0.1 0.4-0.2l2.3-2c2.1-0.6 3.5 1.9 2 3.3l-2.9 2.9q-0.1 0.2-0.2 0.3-0.1 0.2-0.1 0.4 0 0.2 0.1 0.4 0 0.2 0.2 0.4 0.1 0.1 0.3 0.2 0.2 0 0.4 0 0.2 0 0.4 0 0.2-0.1 0.3-0.3c0.8-0.8 2.1-0.8 2.9 0 1.6 1.6-0.4 3.1-0.5 3.3-8.2 8.1-16.7 9.3-18.6 9.4l-10.7-10.6c0.3-2.2 2-11.2 6.2-15.4 2.7-2.7 6-2.6 7.7-2.3l-4.2 6q-0.1 0.1-0.2 0.3z"/>
			</g>
		</g>
		<g id="Layer">
			<ellipse id="Layer" class="s0" cx="238.5" cy="277.5" rx="51.5" ry="52.5"/>
			<ellipse id="Layer" class="s6" cx="238.5" cy="275.2" rx="51.5" ry="50.2"/>
			<g id="Layer">
				<ellipse id="Layer" class="s2" cx="238.5" cy="276.2" rx="39.5" ry="39.3"/>
				<path id="Layer" class="s3" d="m254.3 289l-0.4 3.4-17.6 2.9c0 0 1.2-1.5-1.7-3.2 0 0-8.1-5.3-11.9-9.7 0 0-2.1-2.4 0.7-6.7 0 0 2.3-2.7 3.3 0.6 0 0-1.1-5.7-1-7.5 0-0.1-0.2-5.8 6.8-5.1 0 0 4.1-4.3 7.4 0.4 0 0 4.3-3.5 7 1.3 0 0 6.5-0.6 6.9 5.2 0 0 3.2 10.3 0.5 18.4z"/>
			</g>
		</g>
		<g id="Layer">
			<ellipse id="Layer" class="s0" cx="97.5" cy="277.5" rx="51.5" ry="52.5"/>
			<ellipse id="Layer" class="s7" cx="97.5" cy="275.2" rx="51.5" ry="50.2"/>
			<g id="Layer">
				<ellipse id="Layer" class="s2" cx="97.5" cy="276.2" rx="39.5" ry="39.3"/>
				<path id="Layer" class="s3" d="m110.3 258.4c2.3-1.4 4.5-1.7 6.2-0.9 3.8 2 3.2 9.2 1.7 12.3q-1.4 2.6-4.7 3.8-1.3 4-3.5 6.9 0.3 0.3 0.8 0.6 0.4 0.2 0.8 0.4 0.5 0.2 1 0.2 0.5 0.1 1 0.1l2.2-2.1q0.2-0.2 0.4-0.3 0.3-0.1 0.5-0.1 0.3 0 0.6 0.1 0.2 0.1 0.4 0.3 0.2 0.2 0.3 0.5 0.1 0.2 0.1 0.5 0 0.2-0.1 0.5-0.1 0.2-0.3 0.4l-0.2 0.2h0.5c0.7 0 1.3 0.6 1.3 1.4 0 0.7-0.6 1.4-1.3 1.4h-0.5l0.2 0.1q0.2 0.2 0.3 0.5 0.1 0.2 0.1 0.5 0 0.3-0.1 0.5-0.1 0.3-0.3 0.5c-0.2 0.2-0.6 0.4-1 0.4-0.3 0-0.7-0.2-0.9-0.4l-2.2-2.1q-0.8 0-1.5-0.2-0.8-0.1-1.5-0.4-0.7-0.2-1.3-0.6-0.7-0.4-1.2-0.9-0.1 0.1-0.3 0.2-0.1 0.1-0.2 0.2-0.1 0.1-0.2 0.2-0.1 0.1-0.2 0.2-4 3.1-9.7 3.6c0.5 1.4 0.5 3 0.2 4.5v0.1l1.7 2.6q0.1 0.2 0.2 0.5 0 0.3-0.1 0.5 0 0.3-0.2 0.5-0.1 0.3-0.4 0.4-0.2 0.2-0.5 0.2-0.2 0.1-0.5 0-0.3-0.1-0.5-0.2-0.2-0.2-0.4-0.4l-0.1-0.2-0.1 0.4q-0.1 0.3-0.2 0.5-0.2 0.2-0.4 0.4-0.3 0.1-0.5 0.2-0.3 0-0.6 0-0.2-0.1-0.5-0.3-0.2-0.1-0.4-0.4-0.1-0.2-0.2-0.5 0-0.2 0.1-0.5l0.1-0.4-0.3 0.1c-0.6 0.4-1.5 0.2-1.9-0.4q-0.2-0.3-0.2-0.5 0-0.3 0-0.6 0.1-0.2 0.2-0.5 0.2-0.2 0.4-0.4l2.6-1.6v-0.1q0.1-0.5 0.1-1 0-0.5 0-0.9-0.1-0.5-0.2-1-0.2-0.5-0.4-0.9-0.4 0-0.9-0.1-0.4 0-0.8 0-0.4-0.1-0.9-0.1-0.4 0-0.8-0.1c-3.3-0.5-5.2 1-5.7 1.5-3.9 3.6-4.7 10-4.7 10q0 0.3-0.2 0.5-0.1 0.3-0.3 0.4-0.2 0.2-0.4 0.3-0.2 0.1-0.5 0.1-0.2 0-0.3-0.1-0.2 0-0.4-0.1-0.1-0.1-0.2-0.2-0.2-0.1-0.3-0.2c0-0.1-1.5-2.3-2.1-5.4-0.9-4.3 0.1-8.1 3-11.2q0.6-0.7 1.3-1.3 0.7-0.6 1.5-1.1 0.8-0.5 1.7-0.9 0.8-0.4 1.7-0.7l-0.3 0.1q-0.3-0.2-0.6-0.3-0.3-0.1-0.6-0.1-0.3-0.1-0.6-0.1-0.3-0.1-0.6-0.1h-0.1l-2.1 2.1c-0.3 0.3-0.6 0.4-1 0.4-0.4 0-0.7-0.1-1-0.4q-0.2-0.1-0.3-0.4-0.1-0.2-0.1-0.5 0-0.3 0.1-0.5 0.1-0.3 0.3-0.5l0.2-0.2h-0.4c-0.8 0-1.4-0.6-1.4-1.3 0-0.8 0.6-1.4 1.4-1.4h0.4l-0.2-0.2q-0.2-0.2-0.3-0.4-0.1-0.3-0.1-0.5 0-0.3 0.1-0.6 0.1-0.2 0.3-0.4 0.2-0.2 0.5-0.3 0.2-0.1 0.5-0.1 0.3 0 0.5 0.1 0.3 0.1 0.5 0.3l2.1 2.1h0.1c2.3 0 4.6 1 6.2 2.6l-0.2-0.1q0.5-0.1 1-0.1 0.4 0 0.9 0 0.5 0 1 0.1 0.4 0 0.9 0.1 5.3 0.7 8.6-1.5-0.5-0.6-0.8-1.2-0.4-0.7-0.6-1.4-0.3-0.7-0.4-1.4-0.1-0.7-0.1-1.5l-2.1-2.2q-0.2-0.2-0.3-0.5-0.1-0.2-0.1-0.5 0-0.3 0.1-0.6 0.1-0.2 0.3-0.4 0.1-0.2 0.4-0.3 0.3-0.1 0.5-0.1 0.3 0 0.6 0.1 0.2 0.1 0.4 0.3l0.2 0.2v-0.5c0-0.7 0.6-1.4 1.4-1.4 0.7 0 1.3 0.7 1.3 1.4v0.5l0.2-0.2q0.2-0.2 0.5-0.3 0.2-0.1 0.5-0.1 0.3 0 0.5 0.1 0.3 0.1 0.4 0.3c0.9 0.8 0.3 1.7 0 2l-2.1 2.2c0 1.4 0.5 2.6 1.3 3.7q1.5-1.8 2.3-4.6c-0.4-1.1-1-3.8 0.6-6.9 0.9-1.7 2.6-3.4 4.4-4.5z"/>
			</g>
		</g>
		<g id="Layer">
			<path id="Layer" class="s0" d="m81.1 89.2c-0.5-0.5-0.4-1.4 0.2-1.8l23-19.3c0.5-0.5 1.4-0.4 1.8 0.1 0.5 0.6 0.4 1.4-0.1 1.9l-23 19.3c-0.6 0.5-1.4 0.4-1.9-0.2z"/>
			<path id="Layer" fill-rule="evenodd" class="s0" d="m97.8 66.5l8.1 0.9c0.6 0 1.1 0.6 1.1 1.3q0 0.2-0.1 0.5-0.2 0.2-0.3 0.3-0.2 0.2-0.4 0.2-0.3 0.1-0.5 0.1l-8.1-0.9q-0.2 0-0.4-0.1-0.2-0.1-0.4-0.3-0.1-0.2-0.2-0.4-0.1-0.3-0.1-0.5 0-0.2 0.2-0.5 0.1-0.2 0.3-0.3 0.1-0.2 0.4-0.2 0.2-0.1 0.4-0.1z"/>
			<path id="Layer" fill-rule="evenodd" class="s0" d="m104 76.5l0.5-8.1q0-0.2 0.2-0.4 0.1-0.3 0.2-0.4 0.2-0.2 0.5-0.2 0.2-0.1 0.4-0.1c0.7 0.1 1.2 0.7 1.2 1.3l-0.6 8.1q0 0.3-0.1 0.5-0.1 0.2-0.3 0.3-0.2 0.2-0.4 0.3-0.3 0-0.5 0-0.2 0-0.5-0.1-0.2-0.1-0.3-0.3-0.2-0.2-0.3-0.4 0-0.3 0-0.5z"/>
		</g>
		<g id="Layer">
			<path id="Layer" class="s0" d="m229.1 66.8c0.5-0.6 1.3-0.7 1.9-0.2l23 19.3c0.5 0.5 0.6 1.3 0.1 1.9-0.4 0.5-1.3 0.6-1.8 0.1l-23-19.3c-0.6-0.4-0.7-1.3-0.2-1.8z"/>
			<path id="Layer" fill-rule="evenodd" class="s0" d="m245.4 89.4q-0.3 0-0.5-0.2-0.1-0.1-0.2-0.3-0.2-0.3-0.2-0.5 0-0.2 0.1-0.5 0.1-0.2 0.2-0.4 0.2-0.2 0.4-0.3 0.2-0.1 0.4-0.1l8.1-0.9q0.2 0 0.5 0.1 0.2 0 0.4 0.2 0.1 0.1 0.3 0.3 0.1 0.3 0.1 0.5c0 0.7-0.5 1.3-1.1 1.3l-8.1 0.9q-0.2 0-0.4-0.1z"/>
			<path id="Layer" fill-rule="evenodd" class="s0" d="m252 79q0.1-0.2 0.3-0.4 0.1-0.2 0.3-0.3 0.3-0.1 0.5-0.1 0.2 0 0.5 0 0.2 0.1 0.4 0.3 0.2 0.1 0.3 0.3 0.1 0.2 0.1 0.5l0.6 8.1c0 0.6-0.5 1.2-1.2 1.3q-0.2 0-0.4-0.1-0.3 0-0.5-0.2-0.1-0.1-0.2-0.4-0.2-0.2-0.2-0.4l-0.5-8.1q0-0.2 0-0.5z"/>
		</g>
		<g id="Layer">
			<path id="Layer" class="s0" d="m299 204c0.6 0.5 0.7 1.3 0.3 1.9l-18.1 24c-0.4 0.6-1.3 0.7-1.8 0.2-0.6-0.4-0.7-1.2-0.3-1.8l18.1-24c0.4-0.6 1.2-0.7 1.8-0.3z"/>
			<path id="Layer" fill-rule="evenodd" class="s0" d="m287.8 229.9l-8 1c-0.7 0.1-1.3-0.4-1.4-1q0-0.3 0-0.5 0.1-0.2 0.3-0.4 0.1-0.2 0.3-0.3 0.2-0.2 0.5-0.2l8-1q0.2 0 0.5 0.1 0.2 0 0.4 0.2 0.2 0.1 0.3 0.3 0.1 0.2 0.2 0.5 0 0.2-0.1 0.5 0 0.2-0.2 0.4-0.1 0.2-0.3 0.3-0.2 0.1-0.5 0.1z"/>
			<path id="Layer" fill-rule="evenodd" class="s0" d="m279.6 221.6l1.3 8q0 0.2 0 0.5-0.1 0.2-0.2 0.4-0.2 0.2-0.4 0.3-0.2 0.1-0.4 0.2c-0.7 0-1.3-0.4-1.4-1.1l-1.3-8q0-0.2 0-0.4 0.1-0.3 0.2-0.5 0.2-0.2 0.4-0.3 0.2-0.1 0.4-0.1 0.3-0.1 0.5 0 0.2 0.1 0.4 0.2 0.2 0.2 0.4 0.4 0.1 0.2 0.1 0.4z"/>
		</g>
		<g id="Layer">
			<rect id="Layer" class="s0" x="153.3" y="303.7" width="32.7" height="2.7" rx="1.3"></rect>
			<path id="Layer" fill-rule="evenodd" class="s0" d="m159 298.1q0.2-0.1 0.4-0.1 0.3 0 0.5 0.1 0.2 0.1 0.4 0.2 0.1 0.2 0.2 0.4 0.1 0.3 0.1 0.5 0 0.2-0.1 0.5-0.1 0.2-0.2 0.4l-5.6 5.8q-0.2 0.2-0.4 0.3-0.3 0.1-0.5 0.1-0.2 0-0.5-0.1-0.2-0.1-0.3-0.3c-0.5-0.5-0.5-1.3-0.1-1.7l5.7-5.9q0.1-0.1 0.4-0.2z"/>
			<path id="Layer" fill-rule="evenodd" class="s0" d="m160.5 310.3q0.1 0.3 0.1 0.5 0 0.2-0.1 0.5-0.1 0.2-0.2 0.4-0.2 0.1-0.4 0.2-0.2 0.1-0.5 0.1-0.2 0-0.4-0.1-0.3-0.1-0.4-0.2l-5.7-5.9c-0.4-0.4-0.4-1.2 0.1-1.7q0.1-0.2 0.3-0.3 0.3-0.1 0.5-0.1 0.2 0 0.5 0.1 0.2 0.1 0.4 0.3l5.6 5.8q0.1 0.2 0.2 0.4z"/>
		</g>
		<g id="Layer">
			<path id="Layer" class="s0" d="m58 232c-0.6 0.4-1.4 0.3-1.8-0.3l-18.1-24c-0.4-0.6-0.3-1.4 0.3-1.8 0.5-0.5 1.4-0.4 1.8 0.2l18.1 24c0.4 0.6 0.3 1.4-0.3 1.9z"/>
			<path id="Layer" fill-rule="evenodd" class="s0" d="m47.3 206.2q0.2 0.1 0.3 0.3 0.2 0.2 0.2 0.4 0.1 0.3 0.1 0.5-0.1 0.3-0.2 0.5-0.1 0.2-0.3 0.3-0.2 0.2-0.4 0.2-0.3 0.1-0.5 0.1l-8-1q-0.3 0-0.5-0.2-0.2-0.1-0.3-0.3-0.2-0.2-0.3-0.4 0-0.2 0-0.5c0.1-0.6 0.7-1.1 1.4-1l8 1q0.3 0 0.5 0.1z"/>
			<path id="Layer" fill-rule="evenodd" class="s0" d="m38.5 214.8q-0.2 0.2-0.4 0.4-0.2 0.1-0.4 0.2-0.2 0.1-0.5 0-0.2 0-0.4-0.1-0.2-0.1-0.4-0.3-0.1-0.2-0.2-0.5 0-0.2 0-0.4l1.3-8c0.1-0.7 0.7-1.1 1.4-1.1q0.2 0.1 0.4 0.2 0.2 0.1 0.4 0.3 0.1 0.2 0.2 0.4 0 0.3 0 0.5l-1.3 8q0 0.2-0.1 0.4z"/>
		</g>
		<g id="Layer">
			<g id="Layer">
				<rect id="Layer" class="s0" x="126.3" y="137.7" width="85" height="2.7" rx="1.3"></rect>
				<path id="Layer" fill-rule="evenodd" class="s0" d="m132 132.1q0.2-0.1 0.4-0.1 0.3 0 0.5 0.1 0.2 0.1 0.4 0.2 0.1 0.2 0.2 0.4 0.1 0.3 0.1 0.5 0 0.2-0.1 0.5-0.1 0.2-0.2 0.4l-5.6 5.8q-0.2 0.2-0.4 0.3-0.3 0.1-0.5 0.1-0.2 0-0.5-0.1-0.2-0.1-0.3-0.3c-0.5-0.5-0.5-1.3-0.1-1.7l5.7-5.9q0.1-0.1 0.4-0.2z"/>
				<path id="Layer" fill-rule="evenodd" class="s0" d="m133.5 144.3q0.1 0.3 0.1 0.5 0 0.2-0.1 0.5-0.1 0.2-0.2 0.4-0.2 0.1-0.4 0.2-0.2 0.1-0.5 0.1-0.2 0-0.4-0.1-0.3-0.1-0.4-0.2l-5.7-5.9c-0.4-0.4-0.4-1.2 0.1-1.7q0.1-0.2 0.3-0.3 0.3-0.1 0.5-0.1 0.2 0 0.5 0.1 0.2 0.1 0.4 0.3l5.6 5.8q0.1 0.2 0.2 0.4z"/>
			</g>
			<text id="" style="transform: matrix(1,0,0,1,159,151)" >
			</text>
			<g id="Layer">
				<path id="Layer" class="s0" d="m114.9 173.5c0.5-0.6 1.3-0.7 1.9-0.2l63 52.9c0.6 0.5 0.7 1.3 0.2 1.9-0.5 0.6-1.3 0.6-1.9 0.2l-63-53c-0.6-0.4-0.7-1.3-0.2-1.8z"/>
				<path id="Layer" fill-rule="evenodd" class="s0" d="m180.3 219.6l0.5 8.1c0.1 0.7-0.4 1.3-1.1 1.3q-0.2 0-0.5 0-0.2-0.1-0.4-0.3-0.2-0.1-0.3-0.3-0.1-0.2-0.1-0.5l-0.6-8q0-0.3 0.1-0.5 0.1-0.3 0.2-0.4 0.2-0.2 0.4-0.3 0.2-0.2 0.5-0.2 0.2 0 0.4 0.1 0.3 0 0.4 0.2 0.2 0.2 0.3 0.4 0.1 0.2 0.2 0.4z"/>
				<path id="Layer" fill-rule="evenodd" class="s0" d="m171.5 227.4l8.1-0.9q0.2 0 0.4 0.1 0.3 0.1 0.4 0.2 0.2 0.2 0.3 0.4 0.1 0.2 0.2 0.4c0 0.7-0.5 1.3-1.2 1.4l-8 0.8q-0.2 0-0.5 0-0.2-0.1-0.4-0.2-0.2-0.2-0.3-0.4-0.1-0.2-0.1-0.5 0-0.2 0.1-0.4 0-0.3 0.2-0.5 0.1-0.2 0.4-0.3 0.2-0.1 0.4-0.1z"/>
			</g>
			<text id="" style="transform: matrix(.766,.643,-0.643,.766,146.32,189.385)" >
			</text>
			<g id="Layer">
				<path id="Layer" class="s0" d="m154.8 229.1c-0.5-0.5-0.4-1.4 0.1-1.8l63.1-53c0.6-0.4 1.4-0.4 1.9 0.2 0.4 0.6 0.4 1.4-0.2 1.9l-63.1 52.9c-0.5 0.5-1.4 0.4-1.8-0.2z"/>
				<path id="Layer" fill-rule="evenodd" class="s0" d="m211.6 172.8l8 0.8c0.7 0.1 1.2 0.7 1.1 1.4q0 0.2-0.1 0.4-0.1 0.2-0.3 0.4-0.2 0.1-0.4 0.2-0.3 0.1-0.5 0.1l-8-0.9q-0.3 0-0.5-0.1-0.2-0.2-0.4-0.3-0.1-0.2-0.2-0.5-0.1-0.2 0-0.4 0-0.3 0.1-0.5 0.1-0.2 0.3-0.4 0.2-0.1 0.4-0.2 0.2 0 0.5 0z"/>
				<path id="Layer" fill-rule="evenodd" class="s0" d="m217.7 182.7l0.6-8q0-0.3 0.1-0.5 0.1-0.2 0.3-0.3 0.2-0.2 0.4-0.3 0.2 0 0.5 0c0.6 0 1.1 0.6 1.1 1.3l-0.6 8.1q0 0.2-0.1 0.4-0.1 0.2-0.3 0.4-0.2 0.2-0.4 0.2-0.2 0.1-0.5 0.1-0.2 0-0.4-0.2-0.3-0.1-0.4-0.3-0.2-0.1-0.2-0.4-0.1-0.2-0.1-0.5z"/>
			</g>
			<text id="" style="transform: matrix(.766,-0.643,.643,.766,175.891,200.955)" >
			</text>
			<g id="Layer">
				<g id="Layer">
					<path id="Layer" class="s0" d="m214.6 205.7c-0.7 0.2-1.4-0.1-1.7-0.8l-28.1-77.4c-0.3-0.7 0.1-1.5 0.8-1.7 0.7-0.3 1.4 0.1 1.7 0.8l28.1 77.4c0.3 0.7-0.1 1.4-0.8 1.7z"/>
					<path id="Layer" fill-rule="evenodd" class="s0" d="m181.1 133l3.5-7.3c0.3-0.6 1.1-0.8 1.7-0.5q0.2 0.1 0.4 0.2 0.1 0.2 0.2 0.4 0.1 0.3 0.1 0.5 0 0.2-0.1 0.5l-3.6 7.2q-0.1 0.2-0.3 0.4-0.2 0.2-0.4 0.3-0.2 0-0.5 0-0.2 0-0.4-0.1-0.2-0.1-0.4-0.3-0.2-0.1-0.2-0.4-0.1-0.2-0.1-0.4 0-0.3 0.1-0.5z"/>
					<path id="Layer" fill-rule="evenodd" class="s0" d="m192.6 130.7l-7.4-3.3q-0.2-0.1-0.4-0.3-0.2-0.2-0.3-0.4 0-0.2 0-0.5 0-0.2 0.1-0.4c0.3-0.6 1-0.9 1.6-0.6l7.4 3.3q0.2 0.1 0.4 0.2 0.2 0.2 0.2 0.4 0.1 0.3 0.1 0.5 0 0.2-0.1 0.5-0.1 0.2-0.3 0.3-0.2 0.2-0.4 0.3-0.2 0.1-0.5 0.1-0.2 0-0.4-0.1z"/>
				</g>
				<text id="" style="transform: matrix(-0.342,-0.94,.94,-0.342,195.038,175.227)" >
				</text>
			</g>
			<g id="Layer">
				<g id="Layer">
					<path id="Layer" class="s0" d="m151 124.3c0.7 0.2 1 1 0.8 1.7l-28.2 77.4c-0.2 0.6-1 1-1.7 0.8-0.7-0.3-1-1.1-0.8-1.8l28.2-77.3c0.2-0.7 1-1.1 1.7-0.8z"/>
					<path id="Layer" fill-rule="evenodd" class="s0" d="m130 201.5l-7.4 3.3c-0.6 0.3-1.4 0-1.7-0.6q-0.1-0.2-0.1-0.5 0-0.2 0.1-0.4 0.1-0.3 0.3-0.4 0.1-0.2 0.3-0.3l7.4-3.3q0.3-0.1 0.5-0.1 0.2 0 0.5 0.1 0.2 0 0.4 0.2 0.2 0.2 0.3 0.4 0.1 0.2 0.1 0.5 0 0.2-0.1 0.4-0.1 0.2-0.2 0.4-0.2 0.2-0.4 0.3z"/>
					<path id="Layer" fill-rule="evenodd" class="s0" d="m119.7 195.9l3.5 7.3q0.1 0.2 0.1 0.4 0.1 0.3 0 0.5-0.1 0.2-0.3 0.4-0.1 0.2-0.3 0.3c-0.7 0.3-1.4 0-1.7-0.6l-3.5-7.3q-0.1-0.2-0.2-0.4 0-0.3 0.1-0.5 0.1-0.2 0.3-0.4 0.1-0.2 0.3-0.3 0.3-0.1 0.5-0.1 0.2 0 0.5 0.1 0.2 0.1 0.4 0.2 0.2 0.2 0.3 0.4z"/>
				</g>
				<text id="" style="transform: matrix(-0.342,.94,-0.94,-0.342,147.461,157.374)" >
				</text>
			</g>
		</g>
		<text id="" style="transform: matrix(1,0,0,1,252,64)" >
		</text>
		<text id="" style="transform: matrix(1,0,0,1,55,64)" >
		</text>
		<text id="" style="transform: matrix(1,0,0,1,305,225)" >
		</text>
		<text id="" style="transform: matrix(1,0,0,1,1,225)" >
		</text>
		<text id="" style="transform: matrix(1,0,0,1,154,328)" >
		</text>
	</g>
</svg>